<?xml version="1.0" standalone="no"?>
<!DOCTYPE svg PUBLIC "-//W3C//DTD SVG 20010904//EN"
 "http://www.w3.org/TR/2001/REC-SVG-20010904/DTD/svg10.dtd">
<svg version="1.0" xmlns="http://www.w3.org/2000/svg"
 width="1080.000000pt" height="1080.000000pt" viewBox="0 0 1080.000000 1080.000000"
 preserveAspectRatio="xMidYMid meet">
<metadata>
Created by potrace 1.14, written by Peter Selinger 2001-2017
</metadata>
<g transform="translate(0.000000,1080.000000) scale(0.100000,-0.100000)"
fill="#000000" stroke="none">
<path d="M0 9517 l0 -1287 40 0 40 0 0 112 c0 61 3 109 6 105 3 -3 5 -184 5
-401 l-2 -396 305 0 c302 0 400 11 224 25 -50 4 -86 10 -80 14 12 7 22 211 10
211 -4 0 -9 177 -10 393 -2 253 -7 392 -13 392 -6 0 -12 -140 -15 -390 l-5
-390 -3 389 c-2 340 -4 387 -17 382 -8 -3 -15 -1 -15 4 0 6 12 10 28 11 15 1
34 2 42 3 8 2 50 3 93 4 53 1 76 6 72 13 -5 7 -54 10 -139 8 l-131 -2 0 74 c0
59 3 74 15 75 8 1 70 2 138 2 154 2 158 22 4 23 -59 0 -101 3 -94 6 28 11 9
23 -38 23 l-50 0 0 175 0 175 135 0 135 0 0 -177 c0 -97 3 -174 6 -171 5 6 10
111 13 266 1 80 1 82 26 82 14 0 25 5 25 10 0 6 -35 10 -84 10 -84 0 -125 7
-109 19 13 9 63 143 57 152 -3 5 3 9 14 9 10 0 34 5 53 12 34 12 34 12 9 19
-14 4 -82 7 -152 8 l-128 1 0 30 0 30 230 0 230 0 0 22 c0 17 -3 19 -12 10
-14 -14 -73 -15 -103 -2 l-20 9 20 2 c44 5 -107 17 -222 18 -123 1 -123 1
-123 25 0 25 -16 36 -56 36 l-24 0 0 -385 0 -385 -115 0 -115 0 0 175 0 175
90 0 90 0 0 95 c0 69 -3 95 -12 95 -9 0 -9 3 1 9 12 8 12 12 -2 25 -11 12 -35
16 -91 16 l-76 0 0 30 0 30 90 0 c75 0 90 3 90 16 0 33 -26 44 -104 44 l-76 0
0 85 0 85 109 0 c84 0 113 -3 125 -15 9 -9 34 -15 65 -15 39 0 51 4 51 15 0
13 30 15 209 15 l209 0 7 203 c3 111 5 277 3 369 l-3 168 22 -23 c22 -22 22
-23 23 -422 2 -396 1 -400 -19 -400 -11 0 -23 -4 -27 -8 -4 -4 9 -7 29 -7 l37
0 0 338 c0 185 3 415 7 510 l6 173 -52 -3 -53 -3 1 -152 2 -153 -373 0 -373 0
5 147 5 148 3 -142 3 -143 354 0 355 0 0 150 0 150 -362 0 -361 -1 -54 53 -53
52 0 -1287z m428 766 l3 -83 -166 0 -165 0 0 85 0 85 163 -2 162 -3 3 -82z
m-321 -1525 c-2 -24 -4 -7 -4 37 0 44 2 63 4 43 2 -21 2 -57 0 -80z m303 35
l0 -73 -135 0 -135 0 0 73 0 72 135 0 135 0 0 -72z m0 -508 c0 -206 -3 -375
-7 -375 -5 0 -15 5 -23 10 -13 8 -12 10 3 10 16 0 17 22 15 357 -3 332 -4 358
-20 361 -17 3 -18 -20 -18 -367 l0 -371 -25 0 -25 0 0 321 c0 295 -1 323 -17
335 -43 32 -43 30 -43 -321 0 -328 0 -335 -20 -335 -19 0 -20 7 -20 165 0 106
-4 165 -10 165 -6 0 -15 12 -20 26 -6 14 -19 28 -30 31 -33 9 -25 41 12 45 30
3 31 5 31 45 0 51 -20 73 -68 73 l-36 0 3 83 3 82 43 3 c28 2 42 8 42 18 0 11
21 14 115 14 l115 0 0 -375z m60 0 c0 -368 0 -375 -20 -375 -20 0 -20 7 -20
375 0 368 0 375 20 375 20 0 20 -7 20 -375z"/>
<path d="M6010 10761 c0 -26 -5 -41 -16 -45 -8 -3 -505 -9 -1105 -13 l-1089
-6 1 -211 c0 -116 3 -205 6 -198 2 6 17 12 33 12 16 0 30 6 33 13 2 6 8 -39
12 -101 4 -62 5 -115 2 -118 -2 -3 -148 -5 -323 -6 -243 -1 -289 -3 -194 -8
69 -4 126 -8 128 -9 1 0 2 -10 2 -21 0 -18 -8 -20 -147 -23 -82 -1 860 -3
2092 -3 1232 0 2178 2 2103 3 -130 3 -138 5 -138 23 0 11 -4 20 -10 20 -5 0
-10 5 -10 11 0 7 26 10 78 8 63 -3 76 -2 66 9 -15 15 -144 17 -144 2 0 -5 -7
-10 -15 -10 -8 0 -15 5 -15 10 0 6 -30 10 -70 10 -87 0 -93 -18 -7 -23 55 -3
53 -4 -12 -3 -49 1 -76 6 -79 14 -5 15 -252 17 -252 2 0 -6 -27 -10 -60 -10
l-60 0 2 308 3 307 29 3 c56 7 76 -5 76 -43 l0 -35 490 0 490 0 0 35 c0 19 5
35 10 35 6 0 10 -18 10 -40 l0 -40 -505 0 -505 0 0 -159 c0 -126 3 -161 14
-170 12 -10 142 -16 255 -11 5 0 12 12 14 28 4 26 4 25 6 -5 1 -34 19 -53 31
-33 4 7 27 11 60 9 46 -3 54 0 66 22 12 21 13 22 14 4 0 -11 4 -26 9 -34 8
-12 12 -12 25 -2 9 7 35 11 63 10 42 -3 49 0 60 21 l13 25 0 -27 c0 -30 18
-47 30 -28 4 7 26 11 59 9 54 -3 66 3 74 36 3 11 5 4 6 -17 1 -27 6 -38 16
-38 8 0 15 5 15 11 0 6 21 10 53 9 76 -2 75 -3 80 28 4 26 4 25 6 -5 1 -36 19
-53 32 -32 6 10 9 6 9 -13 0 -18 -5 -28 -15 -28 -11 0 -15 -12 -15 -45 0 -25
5 -45 10 -45 6 0 10 16 10 35 0 23 5 35 14 35 14 0 25 45 27 120 1 25 4 35 6
22 4 -23 7 -23 99 -20 102 3 104 2 104 -53 0 -22 5 -29 19 -29 11 0 22 6 24
13 3 6 6 -19 7 -58 3 -118 15 -131 23 -26 4 52 8 119 8 150 1 31 4 44 6 29 l4
-28 94 0 c66 0 95 4 98 13 2 6 8 -14 12 -45 6 -51 9 -56 25 -48 9 5 20 6 24 3
3 -3 6 -42 6 -85 0 -45 4 -78 10 -78 6 0 10 38 11 93 0 81 14 210 18 165 1
-16 13 -18 95 -18 66 0 96 4 99 13 3 6 6 0 6 -14 1 -15 4 -40 7 -57 5 -26 9
-30 24 -22 15 8 19 4 24 -22 3 -17 6 -55 6 -84 l0 -54 -102 -2 c-57 -1 -84 -3
-60 -5 37 -4 42 -7 42 -29 0 -21 -5 -24 -37 -26 -21 0 59 -5 177 -9 235 -8
303 -17 428 -56 316 -98 565 -340 682 -662 64 -173 59 73 67 -3654 5 -1871 9
-3378 11 -3349 3 43 6 52 21 52 28 0 31 -18 31 -166 l0 -134 -25 0 c-14 0 -26
6 -27 13 -3 25 -15 -142 -17 -229 -6 -443 -302 -846 -725 -990 -95 -33 -214
-54 -301 -54 -39 0 -100 -3 -134 -6 -59 -7 -61 -8 -61 -35 0 -15 -6 -30 -12
-32 -7 -3 13 -6 45 -6 l57 -1 0 -54 c0 -29 -3 -67 -6 -84 -6 -28 -8 -29 -35
-22 -27 8 -29 7 -31 -23 -1 -18 -2 -43 -3 -57 -1 -14 -2 -103 -3 -197 -2 -166
-3 -173 -22 -173 -20 0 -20 7 -20 305 0 197 -4 305 -10 305 -6 0 -10 -108 -10
-305 l0 -305 -155 0 -155 0 0 178 c0 97 -3 236 -7 307 -6 109 -8 122 -14 80
-4 -27 -8 -79 -9 -115 -2 -36 -5 -54 -8 -40 -4 21 -7 17 -18 -25 -8 -32 -13
-111 -14 -217 l0 -168 -110 0 c-88 0 -110 3 -110 14 0 8 -6 17 -12 20 -10 5
-10 7 0 12 14 7 16 167 5 415 -6 148 -20 174 -22 44 -1 -37 -5 -55 -10 -47 -6
10 -10 5 -14 -17 l-6 -31 -75 0 c-50 0 -76 4 -79 13 -3 6 -6 -2 -6 -20 -1 -50
8 -63 45 -63 l34 0 0 -134 c0 -98 3 -136 13 -140 10 -5 10 -7 0 -12 -7 -3 -13
-17 -13 -30 0 -24 -1 -24 -95 -24 l-95 0 0 170 0 170 45 0 45 0 0 100 c0 60
-4 100 -10 100 -6 0 -10 -29 -10 -67 l0 -68 -75 3 c-48 2 -75 8 -76 15 0 7 -4
3 -9 -8 -5 -11 -9 -109 -9 -217 l-1 -198 -30 0 c-19 0 -30 5 -30 14 0 8 -6 17
-12 20 -10 5 -10 7 0 12 9 4 12 71 12 285 0 184 -3 278 -10 274 -6 -3 -10 -48
-10 -101 0 -56 -4 -94 -10 -94 -5 0 -11 6 -12 13 -1 6 -5 -67 -8 -163 -3 -96
-2 -179 1 -185 4 -5 4 -25 2 -42 -5 -30 -9 -33 -39 -33 -19 0 -34 5 -34 11 0
21 -29 39 -64 39 -32 0 -36 -3 -36 -25 0 -25 -1 -25 -85 -25 -57 0 -85 4 -85
11 0 7 -8 18 -17 25 -17 13 -17 13 0 14 16 0 17 16 16 193 -1 105 -4 233 -8
282 l-7 90 -7 -90 c-13 -153 -11 -145 -24 -105 l-11 35 -1 -32 c-1 -44 -10
-63 -27 -56 -11 4 -14 -27 -17 -184 -2 -138 -3 -108 -5 114 -1 188 -6 304 -12
308 -6 4 -10 -27 -10 -87 0 -51 -3 -110 -6 -130 -6 -34 -8 -36 -23 -21 -15 15
-16 2 -19 -175 -1 -117 -6 -192 -12 -192 -6 0 -10 113 -10 305 0 191 -4 305
-10 305 -5 0 -11 -55 -12 -131 l-3 -130 -22 21 -23 20 -3 -197 c-2 -141 -3
-105 -5 125 -1 206 -6 322 -12 322 -6 0 -10 -109 -10 -307 0 -168 -2 -304 -5
-302 -2 3 -7 149 -11 325 -3 175 -10 323 -15 328 -5 6 -9 -31 -9 -91 l0 -100
-72 5 c-40 2 -74 5 -75 6 -1 1 -6 139 -10 306 -7 277 -9 293 -14 175 -4 -71
-8 -166 -9 -210 -2 -44 -5 -71 -7 -60 -2 11 -22 40 -43 65 l-40 45 0 -107 0
-108 -70 0 -70 0 0 250 c0 138 -4 250 -8 250 -10 0 -22 -263 -22 -472 l0 -138
-45 0 -45 0 0 55 0 55 -70 0 -70 0 0 250 c0 160 -4 250 -10 250 -6 0 -10 -39
-10 -98 0 -54 -2 -101 -5 -104 -3 -3 -23 -2 -44 2 -37 7 -39 6 -45 -23 -3 -16
-6 -85 -6 -153 l0 -124 -70 0 -70 0 0 250 c0 160 -4 250 -10 250 -6 0 -10 -40
-10 -100 l0 -100 -40 0 c-25 0 -41 5 -41 13 -5 39 -17 -105 -18 -200 l-1 -113
-70 0 -70 0 0 251 c0 164 -3 248 -10 244 -6 -3 -10 -54 -11 -113 0 -59 -3
-101 -6 -94 -2 6 -20 12 -38 12 -18 0 -36 6 -38 13 -3 6 -6 -61 -6 -150 l-1
-163 -70 0 -70 0 0 244 c0 153 -4 247 -10 251 -6 4 -10 -18 -11 -57 -1 -58
-15 -177 -18 -152 0 7 -19 14 -41 16 l-40 4 0 -153 0 -153 -70 0 -70 0 0 244
c0 153 -4 247 -10 251 -6 4 -10 -16 -11 -52 -1 -56 -15 -179 -18 -157 -2 18
-69 23 -76 6 -3 -7 -5 -76 -5 -153 l0 -139 -60 0 -60 0 0 250 c0 138 -4 250
-8 250 -10 0 -22 -263 -22 -472 0 -125 -2 -138 -17 -138 -14 0 -15 2 -5 9 8 4
12 18 10 29 -3 18 -5 19 -22 7 -24 -18 -14 -65 15 -72 18 -5 20 -13 17 -72
l-3 -66 -92 -3 -93 -3 0 111 0 110 80 0 c78 0 80 1 80 24 0 30 -16 36 -96 36
l-64 0 0 250 c0 157 -4 250 -10 250 -6 0 -11 -94 -12 -247 -2 -157 -7 -248
-13 -248 -6 0 -11 91 -13 248 -1 153 -6 247 -12 247 -6 0 -10 -49 -10 -123 l0
-122 -80 3 -80 4 0 -262 c0 -213 3 -264 14 -276 10 -10 38 -14 90 -14 l76 0 0
115 c0 94 3 115 14 115 13 0 15 -42 15 -275 l1 -275 -201 0 -200 0 1 258 c3
569 0 852 -10 852 -6 0 -10 -67 -10 -181 l0 -180 -44 35 c-34 28 -51 36 -82
35 -21 0 -33 -3 -26 -6 10 -4 10 -8 1 -20 -10 -12 -10 -16 2 -24 9 -6 -7 -9
-48 -9 l-63 0 0 -55 0 -55 -90 0 c-53 0 -90 -4 -90 -10 0 -6 40 -10 100 -10
l100 0 0 50 c0 38 4 50 15 50 12 0 15 -16 15 -81 0 -71 -2 -80 -15 -69 -8 7
-15 9 -15 5 0 -4 -6 -2 -14 4 -9 7 -17 8 -20 2 -3 -5 0 -12 6 -14 8 -4 7 -6
-4 -6 -9 -1 -23 -10 -31 -21 -16 -23 -27 -16 -27 17 0 12 -4 23 -10 23 -5 0
-10 -9 -10 -20 0 -17 -7 -20 -50 -20 l-50 0 0 -50 0 -50 48 -1 47 -2 -60 -7
c-93 -12 -168 -42 -176 -71 -5 -19 -7 -14 -8 19 -1 23 -2 45 -3 50 -2 4 12 8
30 10 51 5 37 22 -18 22 -43 0 -50 3 -50 20 0 11 -4 20 -10 20 -5 0 -10 -11
-10 -24 0 -14 -5 -28 -10 -31 -6 -3 -10 -23 -11 -43 0 -20 -3 -31 -6 -24 -3 9
-43 12 -149 12 -108 0 -144 3 -146 13 0 6 -4 -8 -7 -32 -10 -77 -27 -59 -35
36 -4 57 -3 89 4 91 5 2 10 8 10 13 0 5 -93 10 -207 11 l-208 3 -5 40 c-3 27
-8 36 -14 27 -4 -8 -5 -37 -2 -66 l7 -53 -92 -6 c-51 -4 -150 -7 -221 -7 -105
0 -128 -3 -128 -15 0 -12 -32 -15 -196 -17 -189 -3 -197 -2 -205 17 -6 15 -8
8 -9 -25 0 -25 -4 -40 -8 -34 -4 7 -66 14 -162 18 -96 5 -201 16 -275 31 -66
13 -140 26 -165 28 -25 2 107 4 292 5 l337 2 -2 65 c-1 45 -4 58 -10 42 -4
-12 -7 -35 -5 -52 l3 -30 -345 3 -345 3 1 24 c0 14 1 48 2 76 l2 51 70 -4 c39
-2 70 0 70 4 0 4 -36 8 -80 8 l-80 0 0 -38 c0 -21 -3 -42 -7 -46 -4 -4 -6 -23
-4 -42 l3 -34 -66 0 c-36 0 -66 4 -66 10 0 5 6 8 13 7 6 -2 2 1 -11 7 -12 5
-22 13 -22 17 0 3 -10 5 -23 4 -12 -1 -14 0 -5 2 14 3 18 15 18 48 l0 44 68 3
c39 2 65 7 62 13 -7 14 -160 20 -160 6 0 -6 -4 -11 -10 -11 -5 0 -7 7 -4 15 6
16 -10 21 -89 28 -53 5 -64 -3 -45 -33 10 -16 23 -20 65 -20 l53 0 0 -34 c0
-19 6 -37 13 -40 6 -3 3 -4 -8 -1 -11 2 -49 5 -84 6 l-65 3 -1 -35 c0 -19 -2
-139 -3 -266 l-2 -233 -427 -2 c-414 -3 -428 -4 -425 -22 2 -12 -15 -38 -49
-72 l-53 -54 5402 0 5402 0 0 5400 0 5400 -2395 0 -2395 0 0 -39z m242 -256
c-1 -119 2 -204 6 -197 10 15 22 -76 22 -164 l0 -54 -80 0 -80 0 0 310 0 310
-35 0 -35 0 0 -221 c0 -144 3 -218 10 -214 6 3 11 14 11 23 3 33 17 -84 18
-145 l1 -63 -50 0 -50 0 0 309 0 310 33 3 c17 2 77 4 132 3 l100 0 -3 -210z
m122 209 l46 -7 0 -208 c0 -128 4 -210 10 -214 6 -3 11 2 11 12 3 28 17 -96
18 -154 l1 -53 -50 0 -50 0 0 309 0 310 -47 4 c-29 2 -36 4 -17 5 17 1 52 -1
78 -4z m103 0 c-3 -3 -12 -4 -19 -1 -8 3 -5 6 6 6 11 1 17 -2 13 -5z m284 -16
c0 -7 0 -60 -1 -117 -1 -114 11 -323 17 -303 3 6 9 12 14 12 5 0 9 -45 9 -100
l0 -100 -45 0 -45 0 0 310 0 310 25 0 c14 0 25 -6 26 -12z m-2501 -262 c0
-129 6 -169 21 -144 5 7 9 -32 9 -94 l0 -108 -61 0 -61 0 4 105 c3 58 8 108
11 112 4 3 7 37 7 75 l0 68 30 0 c29 0 30 1 30 49 0 30 -5 51 -12 54 -8 3 -6
6 5 6 15 1 17 -11 17 -123z m141 -23 c0 -82 4 -139 8 -128 10 26 21 -37 21
-127 l0 -68 -60 0 -60 0 0 228 c0 126 3 232 7 235 3 4 24 7 45 7 l38 0 1 -147z
m129 63 c0 -116 11 -219 21 -186 5 18 7 7 8 -35 1 -33 4 -84 7 -112 l7 -53
-62 0 -61 0 0 235 0 235 40 0 40 0 0 -84z m140 -23 c0 -60 3 -126 7 -148 6
-36 7 -38 14 -15 4 16 7 -2 8 -50 1 -41 4 -92 7 -112 l7 -38 -68 0 -68 0 6
158 c4 86 7 192 7 235 l0 77 40 0 40 0 0 -107z m140 -28 c0 -113 2 -135 15
-135 12 0 15 -18 15 -100 l0 -100 -61 0 -61 0 6 230 c3 127 6 232 6 235 0 3
18 5 40 5 l40 0 0 -135z m141 -12 c0 -82 4 -139 8 -128 7 16 9 14 14 -14 4
-19 7 -67 7 -107 l0 -74 -60 0 -60 0 0 235 0 235 45 0 45 0 1 -147z m130 112
c-6 -52 11 -263 20 -235 6 22 7 21 8 -11 1 -20 4 -70 7 -112 l7 -77 -62 0 -61
0 0 236 0 235 43 -3 c40 -3 42 -4 38 -33z m139 -57 c0 -122 11 -213 21 -178 5
19 7 12 8 -26 1 -28 4 -79 7 -113 l7 -61 -68 0 -68 0 7 92 c3 50 6 156 6 235
l0 143 40 0 40 0 0 -92z m140 -32 c0 -126 5 -160 21 -150 5 3 9 -39 9 -95 l0
-101 -61 0 -61 0 6 233 c3 127 6 233 6 235 0 1 18 2 40 2 l40 0 0 -124z m140
-18 c0 -82 4 -137 9 -130 12 19 21 -34 21 -124 l0 -74 -60 0 -60 0 0 235 0
235 45 0 45 0 0 -142z m141 -68 c3 -47 7 -74 9 -60 4 30 17 -75 19 -147 l1
-53 -60 0 -60 0 0 176 0 175 43 -3 42 -3 6 -85z m135 3 c5 -63 10 -81 15 -63
7 24 7 24 8 -5 1 -16 4 -67 8 -112 l6 -83 -68 0 -68 0 6 98 c4 53 7 132 7 175
l0 77 39 0 39 0 8 -87z m134 17 c0 -40 4 -70 10 -70 6 0 10 -42 10 -106 l0
-105 -52 3 -53 3 0 43 c1 23 2 101 3 172 l2 130 40 0 40 0 0 -70z m3053 -46
l97 -7 0 -31 c0 -45 13 -62 32 -42 13 13 16 5 21 -72 4 -47 5 -87 4 -87 -1 -1
-64 0 -139 3 l-138 4 0 130 c0 104 3 128 13 120 7 -6 56 -14 110 -18z m210
-18 c12 -3 53 -11 91 -20 37 -9 72 -14 76 -11 5 3 12 -18 17 -47 7 -44 12 -54
31 -56 20 -3 22 -8 22 -73 0 -39 4 -69 10 -69 6 0 10 28 11 63 1 68 15 196 18
159 0 -15 10 -26 29 -33 15 -5 57 -26 95 -45 58 -30 67 -32 68 -17 1 10 6 -13
10 -52 10 -75 29 -101 79 -107 44 -6 -183 -20 -245 -15 -33 2 -98 19 -145 36
-47 18 -112 38 -145 45 l-60 12 0 42 c2 114 8 235 12 215 3 -14 13 -25 26 -27z
m-2608 -6 c41 0 77 -5 80 -10 5 -8 11 -8 20 0 17 14 25 -28 25 -127 l0 -74
-107 3 c-60 2 -107 6 -105 11 1 4 3 58 3 120 1 61 3 104 6 95 4 -15 16 -18 78
-18z m-2546 -133 l1 -78 -57 3 c-53 3 -58 5 -57 26 0 12 1 60 2 107 l2 85 35
0 c28 0 38 -5 45 -22 8 -22 9 -21 11 7 3 57 18 -44 18 -128z m135 36 l7 -113
-60 0 -61 0 0 110 0 110 40 0 c33 0 42 -4 50 -22 8 -22 9 -21 9 6 2 60 9 17
15 -91z m1816 -3 c0 -67 -4 -110 -10 -110 -6 0 -10 28 -10 64 0 64 10 156 16
156 2 0 4 -49 4 -110z m351 95 c4 35 17 -54 18 -123 1 -81 0 -83 -21 -80 -13
2 -22 6 -20 11 1 4 2 53 2 110 0 69 3 97 10 87 5 -8 10 -10 11 -5z m3462 -244
c31 -9 31 -9 5 -10 -14 -1 -33 -4 -42 -7 -12 -5 -16 0 -16 18 0 29 14 47 18
24 2 -9 18 -20 35 -25z m-55 -91 c125 0 201 -4 193 -9 -12 -7 -10 -14 10 -39
30 -37 51 -41 203 -44 l121 -2 -98 -3 -97 -4 28 -37 c16 -20 41 -54 55 -74 26
-35 31 -37 90 -40 60 -3 62 -4 59 -28 -1 -14 -5 -53 -9 -87 -4 -53 -8 -63 -24
-63 -17 0 -19 8 -19 75 l0 75 25 -6 c19 -5 25 -2 25 10 0 13 -13 16 -75 16
l-75 0 0 -30 0 -30 -60 0 c-53 0 -60 2 -60 20 0 11 -4 20 -10 20 -6 0 -10 -32
-10 -76 0 -68 -2 -76 -20 -81 -28 -7 -19 -28 11 -28 22 0 24 4 27 63 l3 62 59
0 c65 0 59 8 74 -91 l6 -36 113 -6 c117 -7 440 -7 375 0 -21 2 -38 8 -38 14 0
5 -18 9 -40 9 -22 0 -40 -3 -40 -7 0 -5 -49 -8 -110 -8 -60 0 -110 3 -110 8 0
4 49 7 110 7 l109 0 3 83 c3 73 5 82 22 82 34 0 29 23 -6 28 l-33 4 35 0 c19
1 56 1 83 2 l47 1 0 115 0 115 -215 0 c-137 0 -215 4 -215 10 0 6 81 10 223
10 l222 0 0 -130 0 -130 -52 0 c-60 0 -57 6 -53 -99 2 -76 14 -91 69 -91 34 0
40 -3 38 -20 -1 -19 -9 -20 -247 -21 -135 -1 -249 -1 -254 0 -5 1 -6 -8 -3
-21 5 -21 5 -21 -7 -5 -13 17 -32 25 -22 8 3 -5 -33 -12 -79 -16 -91 -7 -108
-2 -121 38 -4 12 -24 48 -45 79 -22 31 -39 59 -39 62 0 4 11 6 25 6 41 0 29
20 -12 21 -34 0 -43 7 -86 60 -56 69 -154 153 -249 212 -62 39 -90 68 -52 53
9 -3 109 -6 222 -6z m774 -285 l5 -25 -106 2 -106 2 98 3 c89 3 97 5 97 23 0
28 7 25 12 -5z m-315 -151 c-3 -3 -12 -4 -19 -1 -8 3 -5 6 6 6 11 1 17 -2 13
-5z m82 -116 c-2 -18 3 -51 11 -73 11 -34 14 -37 21 -20 7 19 8 19 8 -2 1 -17
-5 -23 -19 -23 -37 0 -20 -20 18 -21 20 -1 28 -4 16 -6 -17 -3 -20 -9 -16 -31
3 -15 12 -33 21 -40 14 -11 14 -11 -2 -6 -15 6 -17 3 -11 -22 3 -16 13 -35 22
-41 13 -11 9 -13 -26 -13 -23 0 -42 -4 -42 -10 0 -6 40 -11 98 -12 53 -1 79
-3 57 -5 -22 -1 -63 -5 -92 -9 l-51 -5 9 -32 c11 -40 12 -37 -6 -37 -30 0 -14
-20 18 -22 l32 -1 -35 -5 -35 -5 35 -6 c30 -5 35 -9 32 -31 -2 -14 -8 -26 -13
-28 -5 -2 -9 -15 -9 -28 0 -18 -5 -24 -21 -24 -33 0 -11 -20 24 -21 18 -1 24
-3 15 -6 -23 -6 -24 -51 -2 -60 11 -4 13 -13 9 -33 -5 -24 -3 -29 17 -33 13
-2 -1 -5 -29 -6 -40 -1 -53 -5 -53 -16 0 -11 13 -15 53 -16 28 -1 42 -4 30 -6
-19 -4 -22 -12 -25 -68 l-3 -64 90 -4 c50 -3 133 -5 185 -5 l95 -1 0 -141 0
-140 -57 0 -58 0 0 -275 0 -275 -85 0 c-78 0 -85 2 -85 20 0 11 5 20 10 20 6
0 10 -7 10 -15 0 -12 14 -15 70 -15 l70 0 2 273 3 272 53 3 52 3 0 130 0 129
-80 0 -79 0 -3 -67 -3 -68 -62 -3 -63 -3 0 -54 c0 -37 4 -55 13 -56 48 -5 -91
-18 -191 -18 l-123 -1 3 73 3 72 208 -4 207 -3 0 66 c0 52 -3 66 -15 66 -11 0
-15 -12 -15 -50 l0 -50 -88 0 c-49 0 -137 -3 -196 -7 l-107 -6 3 139 3 139 58
-1 c40 0 57 3 57 12 0 8 -6 11 -15 8 -11 -4 -15 1 -16 17 l0 24 -9 -22 c-7
-18 -17 -23 -45 -23 l-35 0 0 46 0 46 58 -4 57 -4 -3 81 c-4 125 -9 139 -11
33 l-1 -98 -50 0 -50 0 0 100 0 100 60 0 c77 0 79 16 3 19 -32 1 -58 3 -59 4
-1 1 -4 20 -6 42 l-3 40 52 3 52 3 -6 32 c-8 42 -13 47 -13 14 0 -25 -3 -27
-44 -27 l-45 0 -11 58 c-7 31 -18 76 -25 99 -10 32 -11 43 -2 47 8 3 6 8 -5
15 -17 11 -44 78 -35 87 2 3 46 2 96 -2 l91 -7 0 -93 0 -94 -39 0 c-22 0 -43
-4 -46 -10 -4 -6 17 -10 54 -10 54 0 81 12 50 22 -8 3 -10 17 -4 43 16 83 22
-2 21 -302 -1 -244 2 -303 12 -301 10 2 13 43 13 178 -1 456 0 571 5 585 10
24 15 17 13 -17z m324 -5 c-13 -2 -35 -2 -50 0 -16 2 -5 4 22 4 28 0 40 -2 28
-4z m-37 -93 c51 0 54 -1 54 -25 0 -23 -3 -25 -49 -25 -28 0 -53 -4 -56 -10
-4 -6 15 -10 49 -10 50 0 56 -2 56 -21 0 -20 -4 -21 -65 -17 -51 3 -64 1 -61
-9 6 -15 -10 -18 -19 -3 -3 6 -15 10 -26 10 -12 0 -19 7 -19 20 0 16 7 20 34
20 34 0 61 30 35 39 -8 2 -7 6 2 12 10 6 7 9 -10 9 -23 0 -24 -1 -6 -20 18
-20 17 -20 -18 -20 -27 0 -37 4 -37 16 0 8 -4 12 -10 9 -5 -3 -10 0 -11 7 0 7
-4 3 -9 -9 -12 -31 -30 -29 -30 2 0 24 2 25 65 25 55 0 65 3 66 18 1 16 2 16
6 0 4 -14 15 -18 59 -18z m-209 -22 c-3 -8 -6 -5 -6 6 -1 11 2 17 5 13 3 -3 4
-12 1 -19z m280 0 c-3 -8 -6 -5 -6 6 -1 11 2 17 5 13 3 -3 4 -12 1 -19z m-280
-70 c-3 -8 -6 -5 -6 6 -1 11 2 17 5 13 3 -3 4 -12 1 -19z m43 2 c0 -11 -7 -20
-15 -20 -8 0 -15 9 -15 20 0 11 7 20 15 20 8 0 15 -9 15 -20z m17 -2 c-3 -8
-6 -5 -6 6 -1 11 2 17 5 13 3 -3 4 -12 1 -19z m220 0 c-3 -8 -6 -5 -6 6 -1 11
2 17 5 13 3 -3 4 -12 1 -19z m-123 -123 c4 -10 -1 -15 -14 -15 -13 0 -18 5
-14 15 4 8 10 15 14 15 4 0 10 -7 14 -15z m154 -12 c-27 -2 -69 -2 -95 0 -27
2 -5 3 47 3 52 0 74 -1 48 -3z m-102 -203 c47 0 54 -2 54 -20 0 -18 -7 -20
-67 -22 l-68 -2 70 -6 70 -6 -59 -2 c-69 -2 -68 -15 1 -16 40 -1 48 -4 48 -20
0 -16 -8 -19 -60 -19 -33 0 -63 -5 -67 -11 -6 -8 -11 -7 -16 2 -5 7 -15 12
-23 10 -8 -2 -14 5 -14 17 0 15 7 20 27 20 43 0 45 15 2 16 -38 1 -38 2 -9 9
l30 8 -30 2 c-16 1 -33 2 -37 1 -5 0 -8 4 -8 9 0 6 -6 5 -14 -2 -10 -9 -11
-15 -2 -20 7 -5 5 -8 -6 -8 -13 0 -18 8 -18 31 l0 31 61 -4 c48 -3 62 -1 67
11 4 10 7 11 10 3 2 -7 25 -12 58 -12z m-206 -25 c0 -8 -4 -15 -8 -15 -5 0 -9
7 -9 15 0 8 4 15 9 15 4 0 8 -7 8 -15z m277 -7 c-3 -8 -6 -5 -6 6 -1 11 2 17
5 13 3 -3 4 -12 1 -19z m-242 -63 c0 -10 -6 -20 -12 -22 -8 -3 -13 5 -13 22 0
17 5 25 13 23 6 -3 12 -13 12 -23z m-35 0 c0 -8 -2 -15 -4 -15 -2 0 -6 7 -10
15 -3 8 -1 15 4 15 6 0 10 -7 10 -15z m57 -7 c-3 -8 -6 -5 -6 6 -1 11 2 17 5
13 3 -3 4 -12 1 -19z m220 0 c-3 -8 -6 -5 -6 6 -1 11 2 17 5 13 3 -3 4 -12 1
-19z m-197 -558 c0 -5 -4 -10 -10 -10 -5 0 -10 5 -10 10 0 6 5 10 10 10 6 0
10 -4 10 -10z m-88 -22 c-16 -16 -16 -95 1 -101 6 -3 -6 -6 -28 -7 -22 -1 -49
-5 -60 -9 -19 -7 -19 -8 0 -18 14 -8 1 -12 -63 -18 l-82 -7 2 -167 2 -166 6
160 c4 119 8 160 18 159 6 -1 65 -2 130 -4 64 -2 105 -5 90 -7 l-28 -4 0 -139
c0 -124 2 -139 18 -143 9 -3 3 -5 -14 -6 -17 0 -44 -4 -60 -7 l-29 -5 5 -142
c3 -78 4 -266 2 -418 l-3 -277 -34 -6 c-45 -9 -45 -26 0 -26 l35 0 0 -595 c0
-522 2 -595 15 -595 13 0 15 104 15 875 l0 876 30 -34 30 -35 0 -698 c1 -711
2 -734 36 -734 5 0 8 369 6 875 -2 591 1 875 8 875 7 0 10 -282 10 -863 0
-810 1 -863 18 -875 15 -11 17 -28 14 -141 -3 -122 -4 -129 -23 -124 -10 3
-19 1 -19 -5 0 -6 56 -10 145 -11 105 -1 145 2 145 10 0 9 -29 10 -110 6
l-110 -6 0 1005 0 1004 28 0 27 0 3 -858 c2 -471 6 -865 8 -874 5 -15 18 -18
90 -18 l85 0 -2 -139 -2 -139 -296 -4 c-163 -2 -299 -2 -303 0 -5 2 -8 460 -8
1018 l0 1014 35 0 c19 0 35 5 35 10 0 6 -16 10 -35 10 l-35 0 0 270 0 270 132
0 c103 0 129 -3 120 -12z m88 -143 c0 -19 -4 -35 -10 -35 -5 0 -10 16 -10 35
0 19 5 35 10 35 6 0 10 -16 10 -35z m158 -1270 c-2 -570 0 -866 7 -869 6 -3 2
-5 -7 -5 -17 -1 -18 50 -20 869 -2 697 0 870 10 870 10 0 12 -172 10 -865z
m-368 -1195 l75 0 0 -457 -1 -458 -54 -5 -55 -5 3 -32 c3 -32 2 -33 -32 -33
l-36 0 0 -485 c0 -424 -2 -485 -15 -485 -13 0 -15 82 -15 675 l0 675 95 0 95
0 0 54 c0 30 3 62 6 71 5 13 2 16 -11 14 -15 -3 -18 -14 -19 -59 l-1 -55 -82
-3 -83 -4 0 295 c0 161 3 297 7 301 4 4 17 5 28 2 11 -3 54 -6 95 -6z m360
-10 c0 -5 -4 -10 -10 -10 -5 0 -10 5 -10 10 0 6 5 10 10 10 6 0 10 -4 10 -10z
m55 -30 c-71 -6 -114 -2 -97 9 6 3 45 4 88 1 l79 -4 -70 -6z m-118 4 c-3 -3
-12 -4 -19 -1 -8 3 -5 6 6 6 11 1 17 -2 13 -5z m43 -24 c0 -5 -8 -10 -17 -10
-15 0 -16 2 -3 10 19 12 20 12 20 0z m7 -172 c-2 -29 -3 -6 -3 52 0 58 1 81 3
53 2 -29 2 -77 0 -105z m78 -88 l58 0 -7 -37 c-3 -21 -6 -50 -6 -64 0 -26 -1
-27 -77 -31 -43 -2 -80 -2 -83 1 -3 3 -50 6 -105 6 l-100 0 -3 63 -3 62 116 0
c98 0 117 3 122 16 6 16 7 16 18 0 9 -12 28 -16 70 -16z m-65 -160 c0 -5 25
-10 55 -10 l55 0 0 -65 0 -65 -55 0 -55 0 0 -41 c0 -24 -4 -38 -10 -34 -5 3
-10 17 -10 30 0 13 -6 27 -12 32 -7 4 -60 10 -118 13 l-105 5 0 60 0 60 107 3
107 3 13 -27 c7 -15 19 -29 26 -32 19 -6 14 22 -7 37 -11 8 -17 20 -14 28 6
15 23 18 23 3z m-6 -256 c9 -24 7 -28 -9 -14 -17 14 -20 30 -6 30 5 0 12 -7
15 -16z m1 -71 c4 -16 11 -37 17 -48 8 -14 8 -20 -1 -23 -24 -8 18 -31 65 -35
39 -3 34 -4 -23 -5 l-73 -2 0 54 c0 30 -3 61 -6 70 -3 9 -1 16 5 16 6 0 13
-12 16 -27z m103 -80 c-16 -2 -40 -2 -55 0 -16 2 -3 4 27 4 30 0 43 -2 28 -4z
m-298 -133 c0 -5 -6 -10 -12 -10 -9 0 -8 -3 2 -10 10 -6 11 -13 5 -19 -6 -6
-8 -50 -4 -113 3 -57 4 -105 3 -107 -1 -1 -7 0 -13 4 -7 4 -11 45 -11 101 0
56 -4 94 -10 94 -6 0 -10 -40 -10 -99 0 -70 -4 -101 -12 -105 -10 -5 -10 -7 0
-12 8 -4 12 -38 12 -120 l0 -114 -95 0 -95 0 0 205 c0 113 1 208 3 213 1 4 20
7 42 8 63 1 65 7 5 13 -92 10 -58 26 54 26 57 0 108 3 112 8 9 9 -8 10 -122 7
-58 -1 -94 2 -98 9 -5 8 26 11 103 11 62 0 112 4 116 10 3 6 10 10 16 10 5 0
9 -4 9 -10z m90 -404 c0 -71 4 -106 12 -108 17 -6 0 -28 -22 -28 -10 0 -20 6
-23 13 -3 9 -8 8 -22 -3 -14 -11 -19 -12 -22 -2 -3 6 -13 12 -24 12 -17 0 -19
8 -19 103 0 57 3 107 7 110 3 4 30 7 60 7 l53 0 0 -104z m160 -1 c0 -63 4
-105 10 -105 6 0 10 -7 10 -15 0 -18 -36 -20 -43 -2 -3 9 -9 9 -28 -2 -16 -10
-24 -10 -27 -2 -2 6 -10 11 -18 11 -11 0 -14 22 -14 110 l0 110 55 0 55 0 0
-105z m-386 -131 c9 -3 16 -12 16 -20 0 -8 7 -14 15 -14 18 0 20 26 3 33 -7 3
7 6 31 6 33 1 48 -4 63 -21 18 -21 21 -22 32 -6 12 16 14 16 29 1 12 -12 19
-13 29 -5 10 8 12 -1 10 -49 l-4 -59 -46 0 c-84 0 -92 -6 -92 -61 0 -27 -5
-49 -10 -49 -23 0 16 -40 40 -41 17 -1 19 -3 8 -6 -14 -3 -18 -15 -18 -53 0
-29 5 -50 13 -53 6 -3 -27 -6 -74 -6 -100 -1 -99 0 -99 -92 l0 -59 -50 0 -50
0 0 65 c0 63 1 65 25 65 l25 0 0 215 0 215 44 0 c24 0 51 -3 60 -6z m286 -14
c18 -24 37 -26 42 -3 3 15 4 15 21 -1 12 -13 21 -15 30 -8 9 8 11 -15 9 -104
l-3 -114 -55 0 -54 0 0 34 c0 32 3 35 33 38 17 2 32 8 32 13 0 6 -15 14 -32
20 -32 9 -33 10 -33 67 0 46 -3 58 -16 58 -8 0 -12 5 -9 10 9 15 19 12 35 -10z
m170 10 c0 -5 -4 -10 -10 -10 -5 0 -10 5 -10 10 0 6 5 10 10 10 6 0 10 -4 10
-10z m-230 -205 l0 -35 -60 0 -60 0 0 35 0 35 60 0 60 0 0 -35z m-32 -52 c-16
-2 -40 -2 -55 0 -16 2 -3 4 27 4 30 0 43 -2 28 -4z m170 0 c-15 -2 -42 -2 -60
0 -18 2 -6 4 27 4 33 0 48 -2 33 -4z m-73 -140 l6 -33 77 0 77 0 0 -161 0
-161 -85 3 c-47 2 -136 2 -197 1 l-113 -2 0 -833 0 -834 -111 -7 c-60 -3 -114
-4 -119 -1 -5 3 -3 20 3 38 8 23 12 288 15 925 l3 892 59 0 60 0 0 74 0 74
155 -6 155 -5 2 79 c1 45 3 59 5 34 2 -25 6 -60 8 -77z m-183 -392 c-9 -5 -13
-26 -11 -64 1 -31 0 -60 -4 -64 -4 -3 -7 26 -7 65 0 62 2 72 18 72 13 0 14 -2
4 -9z m-9 -380 c1 -105 -1 -191 -5 -191 -5 0 -8 89 -8 197 0 108 2 194 5 191
3 -3 7 -92 8 -197z m2 -441 c0 -104 -3 -190 -7 -190 -5 0 -8 86 -8 190 0 105
3 190 8 190 4 0 7 -85 7 -190z m32 164 c-3 -3 -12 -4 -19 -1 -8 3 -5 6 6 6 11
1 17 -2 13 -5z m-34 -605 c-1 -106 -5 -194 -8 -197 -3 -3 -5 83 -5 191 0 108
3 197 8 197 4 0 6 -86 5 -191z m-2 -308 c-2 -41 1 -50 16 -54 14 -4 13 -5 -4
-6 -22 -1 -23 3 -23 61 0 34 3 58 7 54 4 -3 6 -28 4 -55z m-103 -91 l112 0 -2
-317 -2 -318 -6 255 c-3 140 -7 249 -8 242 -1 -8 -20 -60 -42 -117 l-41 -103
-6 -444 -6 -443 97 3 96 3 0 305 0 304 -25 0 c-18 0 -25 5 -25 20 0 16 7 20
30 20 l30 0 0 -330 0 -330 -92 0 c-65 0 -96 -4 -107 -14 -15 -13 -16 40 -13
597 1 337 0 622 -3 635 -8 32 -22 19 -30 -28 l-7 -40 -64 0 c-62 0 -64 -1 -64
-25 0 -14 5 -25 10 -25 6 0 10 7 10 15 0 16 29 19 93 8 l38 -6 -29 -14 c-29
-14 -38 -42 -18 -55 6 -4 -8 -8 -31 -8 -32 0 -43 -4 -43 -15 0 -10 10 -15 32
-15 27 0 29 -2 16 -12 -18 -15 -88 -143 -88 -161 0 -14 -82 -131 -99 -142 -8
-4 -11 -154 -11 -466 0 -401 -2 -459 -15 -459 -13 0 -15 69 -15 564 l0 564 49
95 c28 52 60 128 73 168 15 49 24 66 26 51 5 -32 22 -17 22 20 0 27 3 30 23
24 12 -3 73 -6 135 -6z m202 -15 c0 -10 -10 -15 -30 -15 -20 0 -30 5 -30 15 0
10 10 15 30 15 20 0 30 -5 30 -15z m220 -290 l0 -306 -77 3 -78 3 -3 303 -2
302 80 0 80 0 0 -305z m40 295 c0 -5 -4 -10 -10 -10 -5 0 -10 5 -10 10 0 6 5
10 10 10 6 0 10 -4 10 -10z m-260 -175 c0 -33 -4 -45 -15 -45 -10 0 -15 -11
-15 -35 0 -24 -5 -35 -15 -35 -12 0 -15 15 -15 74 0 74 0 75 28 79 15 2 28 5
30 6 1 0 2 -19 2 -44z m-555 -420 c-3 -82 -10 -314 -13 -515 l-8 -365 -2 533
c-2 411 1 537 11 552 11 19 12 18 15 -17 2 -21 1 -105 -3 -188z m-54 -123 c-9
-15 -10 -14 -11 7 0 23 -1 24 -20 6 -11 -10 -21 -25 -21 -34 -3 -32 -17 86
-18 147 -1 59 2 67 37 109 l37 46 3 -132 c1 -75 -2 -139 -7 -149z m609 223 c0
-19 -19 -19 -44 0 -19 14 -18 15 12 15 22 0 32 -5 32 -15z m-309 -25 c23 0 24
-3 22 -57 l-1 -58 -36 -3 -36 -3 0 78 c1 67 3 76 14 61 7 -10 24 -18 37 -18z
m569 -110 l0 -100 -85 0 -85 0 0 55 0 55 75 0 75 0 0 45 c0 25 5 45 10 45 6 0
10 -40 10 -100z m-954 23 c-3 -38 -9 -247 -12 -465 -4 -219 -10 -398 -15 -398
-15 0 -11 887 3 910 23 36 30 21 24 -47z m-57 -115 c-1 -121 -2 -129 -13 -93
-12 38 -13 33 -19 -84 -4 -68 -7 -225 -7 -348 0 -188 -2 -224 -14 -221 -12 2
-15 72 -20 409 l-7 407 38 30 c21 17 39 31 41 32 1 0 2 -60 1 -132z m-94 -60
c-3 -68 -10 -251 -14 -408 l-7 -285 -2 401 c-1 220 1 404 5 407 21 21 25 -2
18 -115z m435 -294 c0 -256 -4 -394 -10 -394 -7 0 -10 140 -10 401 0 264 3
398 10 394 6 -4 10 -148 10 -401z m-499 239 c-2 -70 -5 -123 -8 -116 -3 8 -13
8 -38 -3 -30 -12 -34 -12 -38 4 -3 9 -5 -103 -6 -250 -1 -171 -5 -268 -11
-268 -6 0 -10 125 -10 354 l0 355 53 29 c28 15 54 27 57 26 3 -1 3 -60 1 -131z
m-5211 -3 l0 -100 -95 0 -95 0 0 100 0 100 95 0 95 0 0 -100z m5061 -156 c-6
-33 -11 -154 -11 -267 0 -200 -1 -207 -20 -207 -20 0 -20 7 -20 338 l0 338 28
10 27 10 3 -81 c2 -44 -2 -107 -7 -141z m-76 99 c-4 -49 -11 -198 -14 -333
l-6 -245 -7 324 c-4 178 -5 328 -2 333 3 4 12 8 21 8 14 0 15 -11 8 -87z
m1329 63 c8 -14 28 -27 43 -29 16 -2 -2 -5 -39 -6 l-68 -1 0 -105 c0 -63 4
-105 10 -105 6 0 10 -4 10 -10 0 -5 -15 -9 -32 -9 -18 1 -25 3 -15 6 23 6 25
88 2 97 -12 4 -15 25 -15 96 l0 90 44 0 c35 0 47 -5 60 -24z m-1399 -155 c-4
-41 -10 -69 -14 -62 -5 8 -18 10 -34 5 -19 -4 -27 -2 -27 7 0 7 -3 9 -7 5 -5
-4 -11 -105 -14 -224 -5 -199 -5 -190 -5 97 l1 315 50 11 50 10 3 -45 c2 -25
1 -78 -3 -119z m-129 92 c-3 -27 -8 -166 -12 -311 -6 -238 -8 -262 -24 -262
-15 0 -18 26 -24 302 -8 323 -8 318 43 318 22 0 23 -3 17 -47z m-144 -58 c-2
-49 -8 -119 -13 -154 -6 -35 -9 -130 -8 -210 1 -141 0 -146 -20 -149 -21 -3
-21 -3 -21 303 l0 306 33 -3 32 -3 -3 -90z m60 8 c-3 -49 -8 -89 -13 -91 -5
-2 -9 -100 -9 -218 0 -136 -4 -214 -10 -214 -6 0 -10 108 -10 305 l0 305 23 0
c23 0 23 -1 19 -87z m-5052 -2 l25 -7 -22 -8 c-13 -4 -23 -14 -23 -22 0 -9
-11 -14 -30 -14 -27 0 -30 3 -30 30 0 26 3 30 28 29 15 -1 38 -4 52 -8z m6692
-48 c-5 -101 -9 -111 -11 -25 0 45 2 82 7 82 4 0 6 -26 4 -57z m-7390 -30 c-2
-36 -7 -61 -11 -54 -6 9 -55 11 -184 9 -198 -3 -190 -6 -180 72 l6 40 186 0
186 0 -3 -67z m836 -76 l-3 -110 -47 -4 -48 -4 0 95 c0 66 -4 96 -12 99 -7 3
-3 6 10 6 14 1 22 7 22 19 0 14 7 17 40 14 l41 -4 -3 -111z m212 -127 c0 -207
-2 -240 -15 -240 -13 0 -15 33 -15 240 0 207 2 240 15 240 13 0 15 -33 15
-240z m752 219 c2 -5 20 -11 41 -12 l37 -2 0 -57 0 -58 -90 0 -90 0 0 70 0 70
49 0 c27 0 51 -5 53 -11z m711 -221 l-2 -233 -91 -3 -90 -3 0 91 c0 49 -1 93
-2 96 -2 4 32 6 75 6 81 -1 91 6 60 40 -12 13 -31 18 -75 18 l-58 0 0 110 0
110 93 0 92 0 -2 -232z m257 -3 l0 -235 -60 0 -60 0 0 235 0 235 60 0 60 0 0
-235z m140 0 l0 -235 -40 0 -40 0 0 235 0 235 40 0 40 0 0 -235z m100 15 c0
-213 -1 -220 -20 -220 -19 0 -20 7 -20 220 0 213 1 220 20 220 19 0 20 -7 20
-220z m77 -132 c-1 -68 -3 -15 -3 117 0 132 2 187 3 123 2 -64 2 -172 0 -240z
m116 305 c-4 -39 -1 -52 16 -70 19 -20 21 -34 21 -152 0 -94 3 -131 13 -135
10 -5 10 -7 0 -12 -7 -3 -13 -17 -13 -30 0 -23 -3 -24 -60 -24 l-60 0 0 235 0
235 44 0 43 0 -4 -47z m347 -18 c0 -37 4 -65 10 -65 6 0 10 -58 10 -155 0 -97
-4 -155 -10 -155 -5 0 -10 5 -10 10 0 6 -4 10 -10 10 -5 0 -10 -11 -10 -25 0
-16 -6 -25 -15 -25 -13 0 -15 26 -15 170 0 144 2 170 15 170 16 0 18 9 15 83
-1 28 3 47 9 47 7 0 11 -25 11 -65z m96 28 c-3 -21 -6 -51 -7 -68 -1 -17 -3
-22 -6 -12 -5 20 -39 23 -46 5 -3 -7 -6 1 -6 18 -1 17 -4 46 -7 63 -6 31 -6
31 36 31 l43 0 -7 -37z m-4432 -35 c-7 -53 -14 -76 -14 -45 0 23 -27 22 -32 0
-3 -10 -6 -1 -9 20 -4 31 -2 37 13 37 11 0 18 7 18 20 0 11 7 20 15 20 13 0
15 -9 9 -52z m275 30 c-2 -29 -16 -87 -18 -70 -1 8 -20 12 -60 12 -57 0 -60
-1 -64 -27 -2 -16 -5 2 -6 40 l-1 67 75 0 c71 0 75 -1 74 -22z m931 -79 c0
-124 -19 -132 -26 -11 -3 58 -1 86 8 97 7 8 14 14 16 15 1 0 2 -45 2 -101z
m1672 1 l0 -95 -94 -1 c-51 -1 -83 0 -70 3 29 6 29 39 1 64 -19 17 -27 63 -20
125 1 3 42 4 92 2 l91 -4 0 -94z m208 -2 l0 -98 -90 0 -90 0 0 101 0 101 90
-4 90 -3 0 -97z m-3221 20 c-1 -24 -4 -33 -6 -21 -4 19 -12 22 -73 25 -69 3
-69 3 -74 -26 -3 -16 -6 -44 -6 -62 l0 -34 -67 0 c-51 1 -64 3 -50 11 20 12
23 45 3 52 -8 3 -15 24 -18 51 l-3 46 147 0 148 0 -1 -42z m51 -38 c0 -44 -4
-80 -9 -80 -5 0 -11 36 -13 80 -2 59 0 80 10 80 8 0 12 -23 12 -80z m4250
-160 l0 -170 -30 0 c-19 0 -30 5 -30 14 0 8 -6 17 -12 20 -10 5 -10 7 0 12 9
4 12 44 12 150 l0 144 30 0 30 0 0 -170z m1440 35 c0 -98 3 -135 12 -135 9 0
9 -3 0 -12 -7 -7 -12 -22 -12 -35 0 -16 -6 -23 -20 -23 -11 0 -20 6 -20 14 0
8 -6 17 -12 20 -10 5 -10 7 0 12 9 4 12 44 12 150 0 137 1 144 20 144 19 0 20
-7 20 -135z m2016 57 l34 4 0 -43 0 -43 -40 0 -40 0 1 58 c1 31 3 49 6 39 4
-15 12 -18 39 -15z m-6776 -132 c0 -109 -2 -130 -15 -130 -13 0 -15 21 -15
130 0 109 2 130 15 130 13 0 15 -21 15 -130z m1620 115 c0 -8 -7 -15 -15 -15
-8 0 -15 7 -15 15 0 8 7 15 15 15 8 0 15 -7 15 -15z m170 8 c-19 -3 -39 -9
-44 -14 -6 -5 -32 -9 -58 -9 -36 0 -48 4 -48 15 0 12 16 15 93 13 50 0 76 -3
57 -5z m748 -126 c2 -122 2 -127 -18 -127 -19 0 -20 6 -20 131 0 119 2 130 18
127 15 -3 17 -19 20 -131z m4832 3 l0 -130 -30 0 -30 0 0 61 c0 47 -4 65 -17
75 -16 12 -15 13 10 14 21 0 27 5 27 23 0 12 -9 29 -20 37 -11 8 -20 22 -20
32 0 14 8 18 40 18 l40 0 0 -130z m-9340 60 c0 -5 -2 -10 -4 -10 -3 0 -8 5
-11 10 -3 6 -1 10 4 10 6 0 11 -4 11 -10z m1021 0 c17 0 19 -8 19 -95 l0 -95
-95 0 -95 0 0 55 c0 46 3 55 18 55 10 0 38 20 62 45 25 25 51 43 58 40 8 -3
22 -5 33 -5z m1729 -96 l0 -94 -95 0 c-95 0 -95 0 -95 25 0 23 4 25 45 25 l45
0 0 68 c0 38 2 71 4 73 3 2 25 3 50 1 l46 -4 0 -94z m1438 97 c21 -1 22 -4 22
-96 l0 -95 -90 0 -90 0 0 62 c0 58 3 65 36 99 29 29 42 36 67 33 18 -1 42 -3
55 -3z m4797 -2 c-4 -6 1 -17 11 -24 17 -13 15 -14 -24 -15 -28 0 -45 -5 -48
-15 -8 -20 19 -45 50 -45 14 0 26 -4 26 -10 0 -5 -19 -10 -43 -10 l-43 0 1 41
c0 26 -5 43 -14 49 -13 7 -13 11 -2 24 15 18 97 23 86 5z m-5395 -110 c0 -64
-3 -79 -15 -79 -12 0 -15 17 -15 91 0 80 2 90 15 79 11 -9 15 -33 15 -91z
m169 50 c26 -26 31 -38 31 -80 l0 -49 -90 0 -90 0 0 80 0 80 59 0 c53 0 63 -3
90 -31z m5321 -29 c0 -27 -4 -50 -8 -50 -4 0 -6 16 -4 35 3 25 0 36 -12 41
-22 9 -20 24 4 24 17 0 20 -7 20 -50z m-8250 -46 l0 -54 -65 0 -65 0 0 58 0
57 65 -3 65 -4 0 -54z m-710 1 l0 -55 -65 0 -65 0 0 48 c0 27 3 52 7 55 3 4
33 7 65 7 l58 0 0 -55z m2210 35 c0 -11 -4 -20 -9 -20 -5 0 -11 9 -14 20 -3
13 0 20 9 20 8 0 14 -9 14 -20z m1672 -35 l-4 -55 -88 0 -88 0 -4 55 -3 55 95
0 95 0 -3 -55z m-3642 -15 l0 -40 -90 0 -90 0 0 40 0 40 90 0 90 0 0 -40z
m2010 20 c0 -5 11 -10 25 -10 20 0 25 -5 25 -25 0 -22 -4 -25 -35 -25 -33 0
-35 2 -35 35 0 19 5 35 10 35 6 0 10 -4 10 -10z m170 -35 c0 -14 -4 -25 -10
-25 -11 0 -14 33 -3 43 11 11 13 8 13 -18z m6460 -15 c0 -5 -18 -10 -40 -10
-22 0 -40 5 -40 10 0 6 18 10 40 10 22 0 40 -4 40 -10z"/>
<path d="M10077 9258 c4 -94 13 -101 13 -10 0 39 -4 73 -8 76 -5 3 -7 -27 -5
-66z"/>
<path d="M10190 9160 c0 -11 2 -20 4 -20 2 0 6 9 9 20 3 11 1 20 -4 20 -5 0
-9 -9 -9 -20z"/>
<path d="M10172 9035 c0 -16 2 -22 5 -12 2 9 2 23 0 30 -3 6 -5 -1 -5 -18z"/>
<path d="M10191 8724 c0 -11 3 -14 6 -6 3 7 2 16 -1 19 -3 4 -6 -2 -5 -13z"/>
<path d="M10460 9220 c0 -13 11 -13 30 0 12 8 11 10 -7 10 -13 0 -23 -4 -23
-10z"/>
<path d="M10113 8145 c0 -33 2 -45 4 -27 2 18 2 45 0 60 -2 15 -4 0 -4 -33z"/>
<path d="M10258 5225 c-3 -66 4 -97 17 -84 2 2 5 37 6 78 3 50 0 76 -8 78 -8
3 -12 -20 -15 -72z"/>
<path d="M10550 5254 c0 -15 23 -44 34 -44 12 0 6 32 -8 46 -19 18 -26 18 -26
-2z"/>
<path d="M10550 5194 c0 -15 23 -44 34 -44 15 0 4 37 -14 48 -17 10 -20 10
-20 -4z"/>
<path d="M10550 5017 c0 -14 20 -37 32 -37 13 0 9 20 -6 36 -18 17 -26 18 -26
1z"/>
<path d="M10207 4024 c-8 -8 1 -24 14 -24 5 0 9 7 9 15 0 15 -12 20 -23 9z"/>
<path d="M10328 3954 c5 -66 19 -71 24 -8 2 33 -1 48 -12 54 -13 7 -14 0 -12
-46z"/>
<path d="M10167 3993 c-11 -11 -8 -363 3 -363 6 0 10 68 10 185 0 102 -1 185
-3 185 -2 0 -7 -3 -10 -7z"/>
<path d="M10458 3593 l-68 -4 0 -144 0 -145 145 0 145 0 0 145 0 145 -64 0
c-35 0 -70 1 -78 3 -7 2 -43 1 -80 0z"/>
<path d="M10260 2561 l0 -699 -31 -6 c-17 -3 -51 -6 -76 -6 -27 0 -42 -4 -38
-10 3 -5 42 -10 86 -10 l79 0 0 715 c0 470 -3 715 -10 715 -7 0 -10 -240 -10
-699z"/>
<path d="M961 10313 c1 -214 5 -372 8 -353 l7 35 7 -40 c4 -22 7 -86 7 -143 0
-66 4 -101 10 -97 6 4 11 159 12 423 l3 417 2 -377 c2 -241 7 -378 13 -378 6
0 11 17 11 38 1 20 5 98 8 172 l8 135 1 -183 c1 -119 5 -181 12 -177 13 8 14
915 0 915 -5 0 -11 -42 -13 -92 l-3 -93 -2 93 -2 92 -45 0 -45 0 1 -387z"/>
<path d="M1094 10388 c10 -503 22 -546 24 -85 2 358 0 397 -14 397 -15 0 -16
-30 -10 -312z"/>
<path d="M1140 10487 l0 -214 25 -23 c25 -23 25 -25 25 -192 0 -105 4 -168 10
-168 7 0 10 142 10 405 l0 405 -35 0 -35 0 0 -213z"/>
<path d="M1220 10426 c0 -244 2 -276 17 -291 12 -13 18 -42 22 -111 l6 -94 23
15 c19 14 22 25 23 93 1 42 5 109 9 147 6 60 7 49 8 -73 1 -93 6 -141 12 -137
6 4 10 69 10 161 0 101 3 153 10 149 6 -3 10 -42 10 -86 0 -51 4 -78 10 -74 6
3 10 29 10 56 0 31 4 48 10 44 6 -3 11 2 11 12 3 33 17 -91 18 -154 1 -35 5
-63 9 -63 10 0 22 275 22 513 l0 167 -120 0 -120 0 0 -274z"/>
<path d="M1474 10365 c0 -187 2 -262 3 -167 2 95 2 248 0 340 -1 92 -3 14 -3
-173z"/>
<path d="M1494 10473 c3 -126 9 -275 13 -333 l8 -105 7 70 c5 39 8 92 8 118 0
30 4 46 10 42 6 -3 10 0 11 7 0 7 4 4 9 -7 5 -11 9 -62 9 -112 1 -51 5 -93 9
-93 13 0 22 168 22 418 l0 222 -56 0 -56 0 6 -227z"/>
<path d="M1611 10383 c2 -261 3 -297 10 -199 4 65 10 121 13 124 4 3 6 -47 6
-111 0 -71 4 -117 10 -117 6 0 10 38 11 93 1 50 5 103 9 117 4 14 8 18 9 10 1
-12 16 -14 86 -12 82 3 85 4 85 27 0 13 3 30 6 39 5 13 -7 16 -73 18 l-78 3
-2 160 -1 160 -46 3 -46 3 1 -318z"/>
<path d="M1860 10540 c0 -138 2 -159 15 -154 12 5 15 32 15 160 0 130 -2 154
-15 154 -13 0 -15 -24 -15 -160z"/>
<path d="M1900 10532 c0 -222 11 -443 22 -436 4 3 9 65 9 137 1 73 3 124 6
115 4 -16 22 -18 193 -18 171 0 189 2 193 18 3 9 6 -17 7 -58 1 -41 5 -104 9
-140 l6 -65 8 94 c4 52 7 190 7 308 l0 213 -230 0 -230 0 0 -168z"/>
<path d="M2374 10545 c0 -88 2 -123 3 -77 2 46 2 118 0 160 -1 42 -3 5 -3 -83z"/>
<path d="M2390 10568 c0 -210 12 -478 22 -472 4 3 8 63 8 135 l0 129 230 0
230 0 0 -42 c0 -24 4 -38 8 -31 4 7 41 13 90 15 l83 3 6 -38 c3 -22 9 -34 13
-27 9 15 20 -39 20 -101 0 -27 5 -49 10 -49 6 0 10 46 11 118 0 64 3 111 6
105 7 -19 569 -19 576 0 2 6 8 -42 12 -108 13 -187 24 -87 24 228 l1 267 -435
0 -435 0 0 -25 c0 -14 -4 -25 -10 -25 -5 0 -10 11 -10 25 0 23 -4 25 -45 25
-33 0 -45 -4 -45 -15 0 -8 5 -15 10 -15 6 0 10 -4 10 -10 0 -5 -13 -10 -30
-10 -25 0 -30 4 -30 25 0 23 -4 25 -45 25 -33 0 -45 -4 -45 -15 0 -8 5 -15 10
-15 6 0 10 -4 10 -10 0 -6 -45 -10 -115 -10 l-115 0 0 25 c0 16 -6 25 -15 25
-13 0 -15 -21 -15 -132z m480 -93 l0 -85 -225 0 -225 0 0 85 0 85 225 0 225 0
0 -85z"/>
<path d="M6940 10220 c0 -6 48 -10 125 -10 77 0 125 4 125 10 0 6 -48 10 -125
10 -77 0 -125 -4 -125 -10z"/>
<path d="M7220 10185 c0 -25 5 -45 10 -45 6 0 10 16 10 35 l0 35 60 0 c33 0
60 4 60 10 0 6 -30 10 -70 10 l-70 0 0 -45z"/>
<path d="M7390 10185 c0 -25 5 -45 10 -45 6 0 10 16 10 35 l0 35 60 0 c33 0
60 4 60 10 0 6 -30 10 -70 10 l-70 0 0 -45z"/>
<path d="M7560 10185 c0 -25 5 -45 10 -45 6 0 10 16 10 35 l0 35 60 0 c33 0
60 4 60 10 0 6 -30 10 -70 10 l-70 0 0 -45z"/>
<path d="M7730 10185 c0 -25 5 -45 10 -45 6 0 10 16 10 35 l0 35 60 0 c33 0
60 4 60 10 0 6 -30 10 -70 10 l-70 0 0 -45z"/>
<path d="M1690 10130 c0 -5 5 -10 10 -10 6 0 10 5 10 10 0 6 -4 10 -10 10 -5
0 -10 -4 -10 -10z"/>
<path d="M7923 10113 c-31 -6 -29 -23 2 -23 16 0 25 6 25 15 0 8 -1 14 -2 14
-2 -1 -13 -4 -25 -6z"/>
<path d="M7560 10100 c0 -6 28 -10 64 -10 36 0 68 5 71 10 4 6 -20 10 -64 10
-41 0 -71 -4 -71 -10z"/>
<path d="M7730 10100 c0 -6 30 -10 70 -10 40 0 70 4 70 10 0 6 -30 10 -70 10
-40 0 -70 -4 -70 -10z"/>
<path d="M3455 9580 l-70 -6 58 -2 57 -2 0 -70 0 -69 -152 -4 c-84 -1 869 -3
2117 -3 1249 0 2197 2 2108 3 l-163 3 0 70 0 70 63 2 c51 1 45 3 -38 8 -123 9
-3883 9 -3980 0z"/>
<path d="M8690 9580 c-17 -5 -19 -8 -7 -9 14 -1 17 -11 17 -70 l0 -70 -37 -4
c-21 -2 9 -5 67 -6 58 -1 158 -6 222 -10 104 -7 124 -12 193 -44 101 -48 174
-121 223 -224 l37 -78 7 -250 c5 -137 7 -997 6 -1910 -2 -1766 4 -4769 9
-4647 l4 72 69 0 c69 0 70 0 71 -27 1 -19 4 -14 10 17 4 25 8 1546 8 3380 1
3718 8 3379 -71 3540 -80 163 -254 298 -433 335 -75 16 -351 19 -395 5z"/>
<path d="M5959 8839 c-648 -32 -1362 -235 -1900 -541 l-109 -61 0 -48 0 -48
148 68 c816 377 1753 537 2492 425 535 -80 908 -301 1061 -627 75 -161 95
-370 50 -537 -60 -224 -213 -433 -422 -576 l-69 -48 0 -138 0 -139 23 6 c49
16 186 93 262 149 258 190 435 475 480 773 19 123 19 193 0 313 -36 239 -136
429 -310 586 -291 264 -734 413 -1321 444 -104 5 -198 9 -209 8 -11 0 -90 -5
-176 -9z"/>
<path d="M568 8295 c1 -242 6 -385 12 -385 6 0 10 139 10 378 l0 378 55 1 c31
0 58 3 62 7 3 3 -27 6 -68 6 l-74 0 3 -385z"/>
<path d="M6763 7418 c2 -508 6 -640 17 -671 30 -82 110 -143 213 -162 l37 -7
0 736 0 736 -135 0 -136 0 4 -632z"/>
<path d="M7271 8033 c-75 -39 -100 -121 -61 -192 70 -123 260 -73 260 69 0 99
-113 168 -199 123z m146 -47 c72 -78 18 -197 -89 -196 -63 1 -118 55 -118 116
0 37 36 93 70 112 42 22 100 8 137 -32z"/>
<path d="M7277 7993 c-4 -3 -7 -42 -7 -85 0 -63 3 -78 15 -78 10 0 15 10 15
30 0 18 5 30 13 30 7 0 21 -13 30 -30 11 -18 27 -30 38 -30 20 0 20 0 -1 31
-20 28 -21 31 -6 48 23 25 20 57 -6 75 -23 16 -79 22 -91 9z m80 -39 c7 -20
-22 -45 -43 -37 -8 3 -14 16 -14 29 0 19 5 24 25 24 15 0 28 -7 32 -16z"/>
<path d="M3578 7885 l3 -125 130 0 129 0 0 125 0 125 -132 0 -133 0 3 -125z"/>
<path d="M5140 7357 c0 -611 0 -610 70 -689 64 -73 112 -91 263 -96 l127 -4 0
111 0 111 -69 0 c-133 0 -131 -5 -131 340 l0 270 100 0 100 0 0 105 0 104 -97
3 -98 3 -3 143 -3 142 -129 0 -130 0 0 -543z"/>
<path d="M3254 7737 c-269 -278 -403 -558 -430 -897 -13 -174 32 -425 106
-578 186 -389 607 -653 1220 -766 364 -67 848 -72 1310 -15 565 70 1138 233
1553 440 l97 49 0 194 0 193 -142 -73 c-376 -192 -883 -353 -1368 -433 -553
-92 -1173 -90 -1600 5 -528 118 -848 370 -945 744 -84 324 14 720 256 1040 65
85 67 90 71 154 1 36 0 66 -3 66 -4 0 -60 -55 -125 -123z"/>
<path d="M100 7620 c0 -19 7 -20 155 -20 148 0 155 1 155 20 0 19 -7 20 -155
20 -148 0 -155 -1 -155 -20z"/>
<path d="M6021 7614 c-80 -21 -144 -60 -205 -124 -91 -95 -133 -202 -142 -360
-10 -178 38 -339 130 -438 170 -182 535 -190 723 -17 l48 44 -80 74 -80 74
-55 -38 c-114 -80 -286 -74 -367 13 -26 27 -48 78 -57 131 l-7 37 342 0 342 0
-6 108 c-4 59 -13 133 -22 165 -45 170 -150 289 -294 331 -67 20 -197 20 -270
0z m239 -232 c33 -24 80 -117 80 -159 l0 -33 -205 0 -206 0 7 38 c13 71 53
130 109 160 64 34 162 31 215 -6z"/>
<path d="M3580 7173 c5 -429 5 -439 27 -480 29 -54 86 -100 147 -118 95 -29
86 -85 86 510 l0 525 -132 0 -133 0 5 -437z"/>
<path d="M4080 7090 l0 -520 130 0 130 0 0 415 0 415 133 0 c86 0 141 -5 157
-13 47 -24 51 -59 48 -454 l-3 -363 133 0 133 0 -3 413 -3 412 -28 57 c-16 32
-46 73 -69 92 -73 63 -95 66 -445 66 l-313 0 0 -520z"/>
<path d="M125 7582 l-30 -3 0 -184 0 -185 63 0 c34 0 62 -4 62 -10 0 -6 -26
-10 -59 -10 -58 0 -59 -1 -63 -30 -3 -17 -2 -32 0 -35 3 -3 60 -5 126 -5 l121
0 0 -30 0 -30 -122 0 c-103 0 -123 -2 -123 -15 0 -13 40 -15 299 -15 189 0
302 4 306 10 3 6 -1 10 -9 10 -12 0 -16 10 -16 40 0 22 -4 40 -10 40 -5 0 -10
-16 -10 -35 l0 -35 -57 0 -58 0 0 60 c0 33 3 60 8 60 4 0 7 9 7 20 0 18 7 20
76 20 47 0 73 4 69 10 -3 6 -41 10 -84 10 -78 0 -78 0 -73 25 2 15 0 25 -7 25
-8 0 -11 42 -11 135 l0 135 92 0 c59 0 89 3 82 10 -9 9 -506 19 -579 12z m88
-181 c2 -115 -1 -151 -10 -151 -10 0 -13 36 -13 148 0 132 4 171 17 158 2 -2
5 -72 6 -155z m117 2 l0 -153 -47 0 -48 0 2 152 c1 84 3 153 3 153 0 0 20 0
45 0 l45 0 0 -152z m118 -2 l3 -151 -51 0 -50 0 0 153 0 152 47 -1 48 -1 3
-152z m-118 -201 c0 -5 -22 -10 -50 -10 -27 0 -50 5 -50 10 0 6 23 10 50 10
28 0 50 -4 50 -10z m120 0 c0 -5 -22 -10 -50 -10 -27 0 -50 5 -50 10 0 6 23
10 50 10 28 0 50 -4 50 -10z m52 -115 c4 -32 2 -36 -16 -33 -30 4 -37 68 -8
68 15 0 21 -8 24 -35z"/>
<path d="M633 7173 c-7 -19 4 -28 19 -15 7 5 24 12 38 14 20 3 17 5 -14 9 -27
4 -40 1 -43 -8z"/>
<path d="M100 7090 c0 -19 7 -20 115 -20 108 0 115 1 115 20 0 19 -7 20 -115
20 -108 0 -115 -1 -115 -20z"/>
<path d="M100 6931 l0 -71 53 -1 c136 -3 359 1 368 6 5 4 9 28 9 55 0 70 -8
73 -237 78 l-193 4 0 -71z m400 4 c0 -25 -3 -45 -8 -45 -4 0 -6 20 -4 45 2 25
6 45 8 45 2 0 4 -20 4 -45z"/>
<path d="M100 6775 l0 -35 299 0 c189 0 302 4 306 10 4 6 -14 10 -47 10 -29 0
-77 3 -107 7 -45 5 -51 8 -38 18 21 15 -87 25 -280 25 l-133 0 0 -35z"/>
<path d="M100 6680 c0 -19 6 -20 188 -19 103 1 201 5 217 9 17 4 23 8 15 9
-13 1 -13 2 0 11 10 6 -58 10 -202 10 -211 0 -218 -1 -218 -20z"/>
<path d="M100 6361 l0 -239 28 -5 c15 -3 30 -2 35 2 4 4 33 4 65 0 31 -3 60
-3 65 0 4 4 33 4 65 0 31 -3 61 -2 67 2 13 12 92 11 100 -1 15 -24 25 -6 25
45 l0 55 39 0 c49 0 66 20 19 21 -34 1 -93 16 -70 18 6 1 12 10 12 21 0 17 7
20 46 20 27 0 43 4 39 10 -3 6 -30 10 -58 11 -29 0 -46 3 -39 6 8 3 12 29 12
79 l0 74 39 0 c78 0 51 29 -29 31 -19 0 -29 3 -22 6 6 2 12 16 12 29 0 21 4
24 39 24 22 0 42 4 45 9 7 11 -169 21 -371 21 l-163 0 0 -239z m399 187 c0
-16 -2 -18 -6 -8 -3 8 -11 18 -17 22 -7 5 -4 8 7 8 11 0 17 -7 16 -22z m-1
-135 l-2 -68 -3 60 c-2 33 -10 63 -16 67 -8 5 -6 8 6 8 15 0 17 -9 15 -67z m2
-133 c0 -5 -2 -10 -4 -10 -3 0 -8 5 -11 10 -3 6 -1 10 4 10 6 0 11 -4 11 -10z
m-3 -122 c-2 -13 -4 -3 -4 22 0 25 2 35 4 23 2 -13 2 -33 0 -45z"/>
<path d="M660 6554 c0 -21 4 -33 10 -29 6 3 10 17 10 31 0 14 4 23 9 19 5 -3
12 -1 16 5 4 6 -5 10 -19 10 -23 0 -26 -4 -26 -36z"/>
<path d="M660 6420 c0 -47 4 -80 10 -80 6 0 10 32 10 76 0 44 4 73 9 69 5 -3
12 -1 16 5 4 6 -5 10 -19 10 -26 0 -26 -1 -26 -80z"/>
<path d="M660 6289 c0 -17 4 -28 10 -24 6 3 10 13 10 21 0 8 7 14 16 14 8 0
12 5 9 10 -3 6 -15 10 -26 10 -15 0 -19 -7 -19 -31z"/>
<path d="M658 6175 c-2 -47 0 -65 10 -65 8 0 12 18 12 55 0 30 5 55 10 55 6 0
10 5 10 10 0 6 -9 10 -19 10 -17 0 -20 -9 -23 -65z"/>
<path d="M100 5875 c0 -195 1 -205 19 -205 11 0 22 -6 25 -12 5 -10 7 -10 12
0 3 7 26 12 59 12 33 0 56 -5 59 -12 5 -10 7 -10 12 0 3 7 26 12 59 12 33 0
55 -5 58 -12 4 -9 8 -10 14 -2 4 6 29 14 54 18 38 6 48 4 53 -9 11 -29 26 -5
26 41 l0 44 39 0 c79 0 44 28 -38 31 -14 0 -20 3 -13 6 6 2 12 11 12 19 0 10
13 14 46 14 27 0 43 4 39 10 -3 6 -24 10 -46 10 l-39 0 0 70 0 70 39 0 c22 0
43 5 46 10 4 6 -8 10 -29 10 -51 0 -64 7 -58 36 4 21 10 24 49 24 27 0 42 4
38 10 -4 6 -105 10 -271 10 l-264 0 0 -205z m397 13 c-2 -18 -4 -4 -4 32 0 36
2 50 4 33 2 -18 2 -48 0 -65z m3 -168 c0 -16 -2 -30 -4 -30 -2 0 -6 14 -8 30
-3 17 -1 30 4 30 4 0 8 -13 8 -30z"/>
<path d="M660 6050 c0 -16 5 -30 10 -30 6 0 10 9 10 20 0 11 5 20 10 20 6 0
10 5 10 10 0 6 -9 10 -20 10 -16 0 -20 -7 -20 -30z"/>
<path d="M660 5930 c0 -40 4 -70 10 -70 6 0 10 27 10 60 0 33 4 60 10 60 6 0
10 5 10 10 0 6 -9 10 -20 10 -18 0 -20 -7 -20 -70z"/>
<path d="M660 5813 l0 -27 20 22 c11 12 20 24 20 27 0 3 -9 5 -20 5 -15 0 -20
-7 -20 -27z"/>
<path d="M660 5720 c0 -27 0 -52 0 -55 0 -3 3 -6 8 -7 4 -2 8 17 10 41 2 27
10 50 20 58 15 11 14 12 -10 13 -27 0 -28 -2 -28 -50z"/>
<path d="M100 5404 l0 -226 301 3 c165 2 302 7 305 10 2 4 -49 10 -114 14 -64
4 -111 10 -104 12 10 4 12 48 12 196 l-2 192 99 3 c54 1 102 7 107 12 7 7
-101 10 -297 10 l-307 0 0 -226z"/>
<path d="M100 4941 l0 -221 299 0 c189 0 302 4 306 10 4 6 -18 10 -57 11 -61
1 -186 15 -160 18 9 1 12 44 12 180 0 163 -2 180 -17 183 -10 2 37 8 105 12
67 4 120 11 117 16 -2 4 -140 8 -305 9 l-300 2 0 -220z"/>
<path d="M5520 4665 c-196 -54 -322 -183 -377 -386 -12 -46 -17 -103 -18 -199
0 -114 4 -147 24 -210 34 -111 67 -168 135 -236 104 -104 227 -149 406 -148
282 1 472 147 536 410 24 95 24 287 1 374 -28 104 -71 186 -133 250 -63 66
-117 101 -202 132 -77 27 -292 35 -372 13z m270 -197 c88 -26 156 -104 185
-213 10 -38 16 -102 16 -175 1 -197 -49 -307 -166 -365 -53 -26 -70 -30 -145
-29 -104 0 -161 24 -220 92 -61 68 -85 156 -84 307 0 138 16 206 66 281 69
102 207 143 348 102z"/>
<path d="M3106 4543 c43 -65 93 -143 112 -173 20 -30 66 -102 104 -159 l69
-103 -162 -247 c-89 -135 -177 -270 -196 -298 l-34 -53 134 0 133 0 124 210
c69 116 127 210 130 210 3 0 63 -95 135 -210 l130 -210 137 0 c76 0 138 2 138
5 0 2 -90 138 -200 301 l-200 296 183 266 c100 147 184 270 185 274 2 4 -56 8
-130 8 l-133 -1 -115 -188 c-63 -104 -119 -186 -123 -182 -4 5 -54 88 -111
187 l-104 179 -141 3 -141 3 76 -118z"/>
<path d="M4210 4085 l0 -575 400 0 401 0 -3 93 -3 92 -278 3 -278 2 3 148 3
147 228 3 227 2 0 95 0 95 -230 0 -231 0 3 138 3 137 273 3 272 2 0 95 0 95
-395 0 -395 0 0 -575z"/>
<path d="M6460 4085 l0 -575 115 0 115 0 2 402 3 403 220 -400 220 -400 138
-3 137 -3 0 576 0 575 -115 0 -115 0 -2 -412 -3 -412 -221 409 -222 410 -136
3 -136 3 0 -576z"/>
<path d="M7650 4643 c-133 -69 -90 -263 59 -263 104 0 168 97 127 194 -29 68
-121 103 -186 69z m105 -17 c40 -17 75 -68 75 -111 0 -35 -29 -83 -62 -101
-32 -18 -99 -17 -126 2 -56 39 -68 123 -25 174 42 50 80 60 138 36z"/>
<path d="M7668 4603 c-15 -4 -18 -17 -18 -89 0 -68 3 -84 15 -84 10 0 15 11
15 35 0 19 5 35 10 35 6 0 20 -16 31 -35 12 -19 27 -35 35 -35 18 0 18 15 -2
46 -15 23 -15 26 0 43 19 21 21 55 4 69 -16 12 -68 21 -90 15z m62 -33 c20
-13 2 -44 -29 -48 -18 -3 -21 2 -21 27 0 33 19 41 50 21z"/>
<path d="M150 3895 l0 -745 -25 0 -25 0 0 -920 0 -920 211 0 c188 0 210 2 205
16 -3 9 -6 18 -6 20 0 2 -89 5 -197 6 l-198 1 231 7 c126 3 236 10 242 14 8 5
10 12 4 19 -5 7 -17 38 -26 69 -9 32 -19 64 -22 73 -4 10 0 15 14 15 27 0 37
17 15 23 -10 3 10 5 45 6 l62 1 0 416 c0 385 1 418 18 430 16 13 16 13 0 14
-16 0 -18 10 -18 75 0 62 3 77 17 82 15 6 14 7 -3 13 -10 4 -22 6 -26 3 -5 -2
-8 -232 -8 -510 l0 -505 -22 6 c-13 3 -50 6 -83 7 -33 1 -52 3 -42 6 12 3 16
11 12 22 -14 46 -25 299 -25 618 0 326 -1 352 -17 356 -10 3 23 5 73 6 81 1
92 3 97 20 2 11 15 21 28 23 20 3 18 5 -10 9 -27 5 -35 2 -39 -13 -3 -12 -10
-17 -19 -14 -8 3 -31 6 -51 6 -25 0 -33 3 -23 9 8 5 12 19 9 35 -5 23 -2 26
38 32 24 3 59 3 78 0 19 -4 37 -3 40 2 6 10 -63 22 -133 22 -28 0 -41 4 -33 8
9 6 -1 13 -30 23 l-43 14 95 5 c80 4 95 8 98 23 2 9 -1 17 -7 17 -6 0 -11 -3
-11 -7 0 -5 -25 -6 -56 -4 -32 1 -52 6 -46 10 7 4 12 58 14 139 l3 134 -27 5
c-34 7 -41 35 -36 143 l4 75 2 -92 c3 -122 22 -124 22 -3 0 50 3 90 8 90 4 0
6 -40 4 -90 -2 -59 0 -90 7 -90 7 0 11 33 11 90 0 53 4 90 10 90 6 0 10 -37
10 -90 0 -119 18 -117 23 3 l3 92 2 -92 c3 -126 22 -122 22 4 0 123 18 114 23
-12 l3 -90 2 98 c3 129 22 129 22 0 0 -71 3 -94 11 -86 7 7 10 43 8 97 -3 70
-1 86 11 89 21 5 -329 20 -360 16 -25 -4 -25 -6 -28 -106 l-3 -103 -49 0 -50
0 0 731 c0 774 1 759 -44 759 -14 0 -16 -74 -16 -745z m277 -698 c-2 -23 -3
-1 -3 48 0 50 1 68 3 42 2 -26 2 -67 0 -90z"/>
<path d="M300 4598 c0 -7 6 -21 13 -30 12 -15 33 -16 206 -11 203 6 244 20 76
26 l-100 3 103 2 c60 1 102 6 102 12 0 6 -73 10 -200 10 -154 0 -200 -3 -200
-12z"/>
<path d="M313 3974 c-10 -4 -13 -53 -13 -195 l0 -189 25 -6 c14 -3 74 -3 133
2 59 5 90 10 69 12 -20 2 -35 6 -33 10 2 4 7 36 10 71 4 35 8 67 11 71 3 5 -5
16 -17 24 -22 16 -21 16 25 16 26 0 50 0 55 0 4 0 7 -5 7 -12 0 -6 6 -13 13
-15 7 -3 12 4 12 16 0 28 27 27 33 -1 l4 -23 8 23 c5 15 15 22 32 22 13 0 21
4 18 10 -3 6 -49 10 -103 10 l-97 0 -2 57 c-2 32 -8 60 -15 65 -8 4 10 8 42 8
l55 0 0 -32 c0 -17 6 -33 13 -35 8 -3 12 7 12 31 0 25 4 36 15 36 10 0 15 -10
15 -29 0 -17 5 -33 10 -36 6 -4 10 8 10 29 0 32 3 36 25 36 14 0 25 5 25 10 0
6 -29 10 -67 10 -38 0 -124 2 -193 5 -69 3 -131 2 -137 -1z"/>
<path d="M552 3910 c0 -14 2 -19 5 -12 2 6 2 18 0 25 -3 6 -5 1 -5 -13z"/>
<path d="M510 3686 c0 -12 10 -16 40 -16 l40 0 0 -40 c0 -22 5 -40 10 -40 6 0
10 18 10 40 0 39 1 40 35 41 47 2 52 3 61 12 4 4 -4 7 -18 7 -14 0 -59 3 -101
6 -67 6 -77 5 -77 -10z"/>
<path d="M307 3471 c4 -18 14 -19 109 -18 66 0 104 4 104 11 0 6 5 4 11 -4 8
-12 12 -12 16 -2 4 10 8 10 20 1 11 -10 16 -10 23 0 6 11 9 11 13 0 5 -12 8
-11 17 1 9 12 12 13 17 1 5 -11 7 -11 15 0 7 11 11 11 15 2 3 -10 8 -10 19 1
8 8 14 17 14 20 0 3 -90 6 -199 6 -191 0 -199 -1 -194 -19z"/>
<path d="M651 2975 l2 -130 9 119 c6 81 5 123 -2 130 -7 7 -10 -30 -9 -119z"/>
<path d="M6090 2830 c0 -93 -2 -170 -4 -170 -2 0 -18 14 -36 30 -43 40 -127
64 -192 56 -78 -11 -125 -34 -172 -87 -58 -65 -80 -130 -80 -239 0 -150 49
-247 150 -296 102 -50 227 -34 302 38 l32 32 0 -30 c0 -41 16 -54 67 -54 l43
0 0 445 0 445 -55 0 -55 0 0 -170z m-101 -195 c72 -37 107 -125 99 -245 -9
-125 -78 -200 -183 -200 -59 0 -104 19 -138 59 -34 40 -47 89 -47 172 0 109
37 185 105 215 40 18 129 17 164 -1z"/>
<path d="M3820 2920 l0 -60 60 0 60 0 0 60 0 60 -60 0 -60 0 0 -60z"/>
<path d="M5360 2920 l0 -60 58 0 57 0 -3 60 -4 60 -54 0 -54 0 0 -60z"/>
<path d="M6880 2920 c0 -5 14 -10 30 -10 l30 0 0 -65 c0 -51 3 -65 15 -65 12
0 15 14 15 65 l0 65 30 0 c17 0 30 5 30 10 0 6 -32 10 -75 10 -43 0 -75 -4
-75 -10z"/>
<path d="M7060 2855 c0 -60 3 -75 15 -75 11 0 15 13 16 53 l0 52 16 -32 c21
-42 51 -43 66 -3 17 45 29 36 25 -20 -2 -35 1 -50 10 -50 8 0 12 22 12 75 0
66 -2 75 -18 75 -12 0 -25 -14 -37 -40 -10 -22 -21 -40 -24 -40 -3 0 -15 18
-25 40 -12 25 -26 40 -38 40 -16 0 -18 -9 -18 -75z"/>
<path d="M4355 2741 c-44 -11 -76 -29 -112 -64 l-33 -31 0 30 c0 41 -16 54
-67 54 l-43 0 0 -310 0 -310 54 0 55 0 3 203 c3 227 10 255 75 304 45 35 134
43 182 18 55 -28 61 -58 61 -305 l0 -220 55 0 55 0 0 238 0 238 -27 55 c-21
40 -39 60 -69 77 -45 24 -140 36 -189 23z"/>
<path d="M4919 2737 c-91 -26 -139 -84 -139 -167 0 -95 47 -138 205 -186 49
-14 100 -33 112 -41 49 -32 33 -118 -27 -143 -49 -20 -158 -8 -215 24 -26 14
-49 26 -50 26 -10 0 -45 -71 -40 -80 13 -22 106 -60 170 -70 175 -28 298 49
298 188 0 92 -48 134 -205 183 -55 16 -108 39 -119 50 -30 30 -22 86 14 113
38 28 142 27 209 -2 l47 -21 21 34 c12 19 19 39 16 44 -12 19 -118 51 -184 56
-40 3 -85 0 -113 -8z"/>
<path d="M6555 2740 c-85 -22 -158 -81 -196 -158 -20 -40 -23 -63 -24 -157 0
-101 2 -115 28 -167 53 -107 148 -161 282 -161 73 0 154 21 193 51 l22 17 -25
36 -24 37 -47 -24 c-82 -42 -200 -29 -263 29 -30 28 -60 93 -61 130 l0 28 218
-1 217 -2 3 62 c7 135 -58 242 -167 274 -58 17 -107 19 -156 6z m150 -102 c33
-15 62 -63 71 -116 l7 -42 -172 0 c-189 0 -183 -2 -152 65 45 97 150 137 246
93z"/>
<path d="M3820 2420 l0 -310 55 0 55 0 0 310 0 310 -55 0 -55 0 0 -310z"/>
<path d="M5360 2420 l0 -310 55 0 55 0 0 310 0 310 -55 0 -55 0 0 -310z"/>
<path d="M9421 2045 c-9 -205 -20 -304 -40 -357 -51 -132 -165 -237 -301 -279
-65 -19 -100 -20 -1126 -28 -582 -4 -959 -8 -836 -9 l222 -2 0 -70 0 -70 -102
-2 c-302 -5 310 -15 1008 -17 747 -1 784 0 858 19 234 60 419 249 471 482 11
52 15 111 13 207 l-3 134 -77 -2 c-66 -2 -77 0 -81 16 -3 10 -5 0 -6 -22z"/>
<path d="M751 1408 l-1 -117 -325 6 -325 6 0 -81 0 -82 335 0 335 0 -1 173 c0
94 -4 181 -9 192 -5 13 -9 -22 -9 -97z m-1 -178 c0 -43 -1 -43 -48 -34 -19 4
-29 11 -26 19 3 7 -2 19 -10 28 -19 19 -8 25 47 26 37 1 37 1 37 -39z"/>
<path d="M3896 1153 c-12 -99 -57 -271 -80 -305 -42 -64 -63 -68 -332 -68
l-241 0 5 -26 c3 -16 -1 -30 -9 -35 -9 -5 19 -9 74 -9 l87 0 0 -39 c0 -39 -1
-40 -37 -44 -35 -3 -34 -4 10 -5 l47 -2 0 45 0 45 110 0 110 0 0 -39 c0 -22 5
-43 10 -46 6 -4 10 12 10 39 l0 46 51 0 c131 0 193 82 242 318 l22 102 67 0
68 0 0 -105 c0 -63 4 -105 10 -105 6 0 10 42 10 105 0 63 4 105 10 105 6 0 10
9 10 20 0 11 -4 20 -10 20 -5 0 -10 -4 -10 -10 0 -6 -32 -10 -75 -10 l-75 0 0
30 c0 28 -2 30 -39 30 l-39 0 -6 -57z"/>
<path d="M4110 1200 c0 -5 5 -10 10 -10 6 0 10 5 10 10 0 6 -4 10 -10 10 -5 0
-10 -4 -10 -10z"/>
<path d="M6825 1161 c9 -65 33 -152 34 -123 1 15 7 22 21 22 12 0 25 -10 30
-22 7 -18 8 -14 4 17 -3 22 -9 65 -12 95 l-7 55 -39 3 -38 3 7 -50z"/>
<path d="M1140 934 c0 -8 5 -12 10 -9 6 4 8 11 5 16 -9 14 -15 11 -15 -7z"/>
<path d="M6391 859 c0 -53 2 -130 5 -172 l7 -77 33 0 34 0 0 155 0 155 -34 0
c-24 0 -36 5 -39 18 -3 9 -5 -26 -6 -79z"/>
<path d="M4900 827 c0 -101 2 -113 20 -125 20 -12 20 -10 20 93 0 92 -3 108
-20 125 l-20 20 0 -113z"/>
<path d="M100 895 l0 -25 335 0 c339 0 355 2 321 36 -12 12 -71 14 -335 14
l-321 0 0 -25z"/>
<path d="M960 904 c0 -3 6 -12 14 -20 17 -16 126 -20 126 -4 0 6 -27 10 -60
10 -33 0 -60 4 -60 10 0 6 -4 10 -10 10 -5 0 -10 -3 -10 -6z"/>
<path d="M1140 855 c0 -19 0 -37 0 -40 0 -3 3 -4 8 -2 4 1 7 13 7 27 1 23 5
25 48 28 62 4 51 22 -14 22 l-49 0 0 -35z"/>
<path d="M1330 820 c0 -5 5 -10 11 -10 5 0 7 5 4 10 -3 6 -8 10 -11 10 -2 0
-4 -4 -4 -10z"/>
<path d="M100 780 l0 -30 335 0 c298 0 335 2 335 16 0 42 -13 44 -349 44
l-321 0 0 -30z"/>
<path d="M1531 725 c0 -17 -6 -36 -12 -42 -8 -8 -7 -13 1 -18 19 -12 26 7 19
50 -5 35 -6 36 -8 10z"/>
<path d="M1712 690 c-11 -18 -10 -20 8 -20 13 0 20 7 20 20 0 11 -3 20 -8 20
-4 0 -13 -9 -20 -20z"/>
<path d="M1910 690 c-9 -16 -8 -20 5 -20 8 0 15 9 15 20 0 11 -2 20 -5 20 -2
0 -9 -9 -15 -20z"/>
<path d="M2361 694 c0 -11 3 -14 6 -6 3 7 2 16 -1 19 -3 4 -6 -2 -5 -13z"/>
<path d="M2406 701 c-4 -7 -5 -15 -2 -18 9 -9 19 4 14 18 -4 11 -6 11 -12 0z"/>
<path d="M7510 652 c0 -33 -3 -80 -6 -105 -6 -44 -7 -45 -35 -37 -25 8 -30 6
-35 -15 -7 -27 14 -55 40 -55 14 0 16 -19 16 -131 0 -100 3 -134 14 -145 8 -8
17 -14 20 -14 11 0 7 548 -4 555 -6 4 -10 -16 -10 -53z"/>
<path d="M7792 685 c0 -16 2 -22 5 -12 2 9 2 23 0 30 -3 6 -5 -1 -5 -18z"/>
<path d="M8030 686 c0 -14 5 -26 10 -26 6 0 10 9 10 19 0 11 -4 23 -10 26 -6
4 -10 -5 -10 -19z"/>
<path d="M8270 590 c0 -73 4 -120 10 -120 6 0 10 47 10 120 0 73 -4 120 -10
120 -6 0 -10 -47 -10 -120z"/>
<path d="M2060 630 c0 -5 5 -10 10 -10 6 0 10 5 10 10 0 6 -4 10 -10 10 -5 0
-10 -4 -10 -10z"/>
<path d="M2530 616 c0 -8 5 -18 10 -21 6 -3 10 3 10 14 0 12 -4 21 -10 21 -5
0 -10 -6 -10 -14z"/>
<path d="M6780 620 c0 -5 5 -10 11 -10 5 0 7 5 4 10 -3 6 -8 10 -11 10 -2 0
-4 -4 -4 -10z"/>
<path d="M3730 610 c0 -5 11 -10 25 -10 14 0 25 5 25 10 0 6 -11 10 -25 10
-14 0 -25 -4 -25 -10z"/>
<path d="M98 479 c-2 -35 1 -63 7 -65 6 -3 156 -3 335 -2 l325 3 3 48 c5 80
18 77 -346 77 l-320 0 -4 -61z"/>
<path d="M100 345 l0 -25 335 0 c268 0 335 3 335 13 0 35 -19 37 -347 37
l-323 0 0 -25z"/>
<path d="M98 235 c-3 -13 -3 -27 0 -30 3 -3 153 -5 334 -5 280 0 329 2 334 15
3 8 -1 21 -9 30 -13 13 -62 15 -335 15 l-320 0 -4 -25z"/>
</g>
</svg>
